<svg xmlns="http://www.w3.org/2000/svg" version="1.1" xmlns:xlink="http://www.w3.org/1999/xlink" xmlns:svgjs="http://svgjs.dev/svgjs" width="1440" height="560" preserveAspectRatio="none" viewBox="0 0 1440 560"><g mask="url(&quot;#SvgjsMask1021&quot;)" fill="none"><rect width="1440" height="560" x="0" y="0" fill="rgba(5, 18, 30, 1)"></rect><path d="M1276.136267270525 382.13181978205165L1324.2699774531316 225.22851816502043 1183.9380492531614 255.0569903157305z" fill="rgba(28, 83, 142, 0.4)" class="triangle-float2"></path><path d="M629.6661589107073 441.5224610230287L504.7317211076645 410.37280715926045 473.58206724389623 535.3072449623032 598.5165050469391 566.4568988260716z" fill="rgba(28, 83, 142, 0.4)" class="triangle-float3"></path><path d="M419.6744797446812-49.96364089274685L356.721754391859 98.3436860647523 505.02908134935814 161.29641141757452 567.9818067021804 12.989084460075361z" fill="rgba(28, 83, 142, 0.4)" class="triangle-float3"></path><path d="M277.188,161.26C316.483,164.093,354.67,144.555,375.357,111.026C397.102,75.782,400.397,31.032,379.65,-4.808C358.941,-40.583,318.501,-59.974,277.188,-58.559C238.2,-57.223,203.271,-33.26,186.206,1.82C170.933,33.215,183.509,68.121,200.813,98.444C218.323,129.13,241.949,158.72,277.188,161.26" fill="rgba(28, 83, 142, 0.4)" class="triangle-float2"></path><path d="M937.6691039317816 127.25291669397684L894.8341842418334 259.0852438399544 1026.666511387811 301.92016352990254 1069.5014310777592 170.08783638392498z" fill="rgba(28, 83, 142, 0.4)" class="triangle-float2"></path><path d="M134.88727418850343 447.06792987722474L83.25301008627916 529.700025601639 233.01828572401274 565.8353738927683z" fill="rgba(28, 83, 142, 0.4)" class="triangle-float2"></path><path d="M256.02802458860975 580.7964650487812L390.8791881224579 529.0319532854575 339.11467635913414 394.1807897516094 204.26351282528603 445.94530151493313z" fill="rgba(28, 83, 142, 0.4)" class="triangle-float3"></path><path d="M1442.3002019119533 449.4020144555367L1547.233916820591 324.34688272891105 1422.1787850939654 219.41316782027326 1317.2450701853277 344.46829954689895z" fill="rgba(28, 83, 142, 0.4)" class="triangle-float3"></path><path d="M221.77713706910507 392.6060651632115L202.1531493170819 484.92966880941617 294.4767529632866 504.5536565614393 314.1007407153097 412.2300529152347z" fill="rgba(28, 83, 142, 0.4)" class="triangle-float1"></path><path d="M140.768,68.683C163.556,68.787,183.239,54.426,194.803,34.79C206.562,14.823,210.259,-9.773,198.854,-29.944C187.29,-50.397,164.264,-60.652,140.768,-60.783C117.021,-60.916,93.139,-51.325,81.546,-30.6C70.177,-10.277,75.647,14.303,87.577,34.302C99.168,53.734,118.141,68.58,140.768,68.683" fill="rgba(28, 83, 142, 0.4)" class="triangle-float2"></path><path d="M412.884,337.145C449.053,339.15,488.392,329.163,506.276,297.66C524.005,266.431,510.371,228.912,491.765,198.198C473.995,168.866,447.173,142.845,412.884,143.497C379.428,144.133,354.753,171.563,339.031,201.101C324.399,228.591,320.999,260.843,335.857,288.212C351.412,316.865,380.331,335.34,412.884,337.145" fill="rgba(28, 83, 142, 0.4)" class="triangle-float2"></path><path d="M1179.1518319401225 209.7563420815821L1063.0241392144342 162.70892106670505 1076.3723002564243 271.42096876906567z" fill="rgba(28, 83, 142, 0.4)" class="triangle-float2"></path><path d="M1120.1415296285368 237.59693957517715L1083.5179015206315 384.48628890727105 1267.0308789606306 274.22056768308244z" fill="rgba(28, 83, 142, 0.4)" class="triangle-float3"></path><path d="M732.089,292.55C792.027,293.247,850.119,265.086,879.824,213.022C909.289,161.377,903.621,97.318,872.321,46.764C842.644,-1.168,788.344,-29.259,732.089,-25.589C681.201,-22.27,646.668,19.535,620.328,63.202C592.736,108.943,566.786,161.634,590.186,209.655C615.906,262.436,673.379,291.868,732.089,292.55" fill="rgba(28, 83, 142, 0.4)" class="triangle-float2"></path><path d="M1143.5070829077417 69.51876996652305L1268.779614412344 150.87170314468608 1224.8600160859048-55.75376153807926z" fill="rgba(28, 83, 142, 0.4)" class="triangle-float2"></path><path d="M578.0099124290502 531.4316350826689L573.138758719913 391.9400436877977 433.64716732504166 396.811197396935 438.51832103417905 536.3027887918062z" fill="rgba(28, 83, 142, 0.4)" class="triangle-float1"></path><path d="M98.49584647390311 31.255651343141086L98.49584647390314 165.53929871189743 232.77949384265946 165.5392987118974 232.77949384265946 31.255651343141054z" fill="rgba(28, 83, 142, 0.4)" class="triangle-float1"></path><path d="M681.798264540159 256.7943287352345L759.6696250742631 299.9591287282302 724.9630645331548 178.9229682011305z" fill="rgba(28, 83, 142, 0.4)" class="triangle-float2"></path><path d="M316.67751845386886 329.5881648801927L353.64593112458635 458.5123411939238 482.5701074383174 421.5439285232063 445.60169476759995 292.6197522094752z" fill="rgba(28, 83, 142, 0.4)" class="triangle-float1"></path><path d="M1125.508044049192 525.3362336485528L1098.8439499356366 409.841353286045 1010.0131636866842 552.0003277621083z" fill="rgba(28, 83, 142, 0.4)" class="triangle-float3"></path></g><defs><mask id="SvgjsMask1021"><rect width="1440" height="560" fill="#ffffff"></rect></mask><style>
                @keyframes float1 {
                    0%{transform: translate(0, 0)}
                    50%{transform: translate(-10px, 0)}
                    100%{transform: translate(0, 0)}
                }

                .triangle-float1 {
                    animation: float1 5s infinite;
                }

                @keyframes float2 {
                    0%{transform: translate(0, 0)}
                    50%{transform: translate(-5px, -5px)}
                    100%{transform: translate(0, 0)}
                }

                .triangle-float2 {
                    animation: float2 4s infinite;
                }

                @keyframes float3 {
                    0%{transform: translate(0, 0)}
                    50%{transform: translate(0, -10px)}
                    100%{transform: translate(0, 0)}
                }

                .triangle-float3 {
                    animation: float3 6s infinite;
                }
            </style></defs></svg>